<mxfile host="app.diagrams.net" agent="Mozilla/5.0 (Windows NT 10.0; Win64; x64) AppleWebKit/537.36 (KHTML, like Gecko) Chrome/132.0.0.0 Safari/537.36 OPR/117.0.0.0" version="26.1.1">
  <diagram name="Page-1" id="BXb9tQ6dJMQquPGbt-Ft">
    <mxGraphModel dx="1054" dy="594" grid="1" gridSize="10" guides="1" tooltips="1" connect="1" arrows="1" fold="1" page="1" pageScale="1" pageWidth="850" pageHeight="1100" math="0" shadow="0">
      <root>
        <mxCell id="0" />
        <mxCell id="1" parent="0" />
        <mxCell id="dqh9Xbjhalfim9IYdRQ5-1" value="TaskManager" style="shape=umlActor;verticalLabelPosition=bottom;verticalAlign=top;html=1;" vertex="1" parent="1">
          <mxGeometry x="50" y="370" width="30" height="60" as="geometry" />
        </mxCell>
        <mxCell id="dqh9Xbjhalfim9IYdRQ5-2" value="" style="swimlane;startSize=0;" vertex="1" parent="1">
          <mxGeometry x="180" y="140" width="210" height="480" as="geometry" />
        </mxCell>
        <mxCell id="dqh9Xbjhalfim9IYdRQ5-3" value="Add Employee" style="ellipse;whiteSpace=wrap;html=1;" vertex="1" parent="dqh9Xbjhalfim9IYdRQ5-2">
          <mxGeometry x="30" y="30" width="100" height="40" as="geometry" />
        </mxCell>
        <mxCell id="dqh9Xbjhalfim9IYdRQ5-6" value="Add Task" style="ellipse;whiteSpace=wrap;html=1;" vertex="1" parent="dqh9Xbjhalfim9IYdRQ5-2">
          <mxGeometry x="30" y="80" width="100" height="40" as="geometry" />
        </mxCell>
        <mxCell id="dqh9Xbjhalfim9IYdRQ5-7" value="Assign Task" style="ellipse;whiteSpace=wrap;html=1;" vertex="1" parent="dqh9Xbjhalfim9IYdRQ5-2">
          <mxGeometry x="30" y="130" width="100" height="40" as="geometry" />
        </mxCell>
        <mxCell id="dqh9Xbjhalfim9IYdRQ5-8" value="Add Sub Task" style="ellipse;whiteSpace=wrap;html=1;" vertex="1" parent="dqh9Xbjhalfim9IYdRQ5-2">
          <mxGeometry x="30" y="180" width="100" height="40" as="geometry" />
        </mxCell>
        <mxCell id="dqh9Xbjhalfim9IYdRQ5-9" value="Modify Task Status" style="ellipse;whiteSpace=wrap;html=1;" vertex="1" parent="dqh9Xbjhalfim9IYdRQ5-2">
          <mxGeometry x="30" y="230" width="100" height="40" as="geometry" />
        </mxCell>
        <mxCell id="dqh9Xbjhalfim9IYdRQ5-10" value="Show Employee" style="ellipse;whiteSpace=wrap;html=1;" vertex="1" parent="dqh9Xbjhalfim9IYdRQ5-2">
          <mxGeometry x="30" y="280" width="100" height="40" as="geometry" />
        </mxCell>
        <mxCell id="dqh9Xbjhalfim9IYdRQ5-11" value="Show Task" style="ellipse;whiteSpace=wrap;html=1;" vertex="1" parent="dqh9Xbjhalfim9IYdRQ5-2">
          <mxGeometry x="30" y="330" width="100" height="40" as="geometry" />
        </mxCell>
        <mxCell id="dqh9Xbjhalfim9IYdRQ5-12" value="View Statistics" style="ellipse;whiteSpace=wrap;html=1;" vertex="1" parent="dqh9Xbjhalfim9IYdRQ5-2">
          <mxGeometry x="30" y="380" width="100" height="40" as="geometry" />
        </mxCell>
        <mxCell id="dqh9Xbjhalfim9IYdRQ5-14" value="Load" style="ellipse;whiteSpace=wrap;html=1;" vertex="1" parent="dqh9Xbjhalfim9IYdRQ5-2">
          <mxGeometry x="30" y="430" width="100" height="40" as="geometry" />
        </mxCell>
        <mxCell id="dqh9Xbjhalfim9IYdRQ5-15" value="TaskManagement App" style="text;html=1;align=center;verticalAlign=middle;whiteSpace=wrap;rounded=0;" vertex="1" parent="1">
          <mxGeometry x="217.5" y="110" width="135" height="30" as="geometry" />
        </mxCell>
        <mxCell id="dqh9Xbjhalfim9IYdRQ5-16" value="" style="endArrow=classic;html=1;rounded=0;exitX=1;exitY=0.3333333333333333;exitDx=0;exitDy=0;exitPerimeter=0;entryX=0;entryY=0.5;entryDx=0;entryDy=0;" edge="1" parent="1" source="dqh9Xbjhalfim9IYdRQ5-1" target="dqh9Xbjhalfim9IYdRQ5-3">
          <mxGeometry width="50" height="50" relative="1" as="geometry">
            <mxPoint x="140" y="370" as="sourcePoint" />
            <mxPoint x="190" y="320" as="targetPoint" />
          </mxGeometry>
        </mxCell>
        <mxCell id="dqh9Xbjhalfim9IYdRQ5-17" value="" style="endArrow=classic;html=1;rounded=0;entryX=0;entryY=0.5;entryDx=0;entryDy=0;" edge="1" parent="1" target="dqh9Xbjhalfim9IYdRQ5-6">
          <mxGeometry width="50" height="50" relative="1" as="geometry">
            <mxPoint x="80" y="390" as="sourcePoint" />
            <mxPoint x="190" y="320" as="targetPoint" />
          </mxGeometry>
        </mxCell>
        <mxCell id="dqh9Xbjhalfim9IYdRQ5-18" value="" style="endArrow=classic;html=1;rounded=0;exitX=1;exitY=0.3333333333333333;exitDx=0;exitDy=0;exitPerimeter=0;entryX=0;entryY=0.5;entryDx=0;entryDy=0;" edge="1" parent="1" source="dqh9Xbjhalfim9IYdRQ5-1" target="dqh9Xbjhalfim9IYdRQ5-7">
          <mxGeometry width="50" height="50" relative="1" as="geometry">
            <mxPoint x="140" y="370" as="sourcePoint" />
            <mxPoint x="190" y="320" as="targetPoint" />
          </mxGeometry>
        </mxCell>
        <mxCell id="dqh9Xbjhalfim9IYdRQ5-19" value="" style="endArrow=classic;html=1;rounded=0;entryX=0;entryY=0.5;entryDx=0;entryDy=0;" edge="1" parent="1" target="dqh9Xbjhalfim9IYdRQ5-8">
          <mxGeometry width="50" height="50" relative="1" as="geometry">
            <mxPoint x="80" y="390" as="sourcePoint" />
            <mxPoint x="190" y="320" as="targetPoint" />
          </mxGeometry>
        </mxCell>
        <mxCell id="dqh9Xbjhalfim9IYdRQ5-20" value="" style="endArrow=classic;html=1;rounded=0;exitX=1;exitY=0.3333333333333333;exitDx=0;exitDy=0;exitPerimeter=0;entryX=0;entryY=0.5;entryDx=0;entryDy=0;" edge="1" parent="1" source="dqh9Xbjhalfim9IYdRQ5-1" target="dqh9Xbjhalfim9IYdRQ5-9">
          <mxGeometry width="50" height="50" relative="1" as="geometry">
            <mxPoint x="140" y="370" as="sourcePoint" />
            <mxPoint x="190" y="320" as="targetPoint" />
          </mxGeometry>
        </mxCell>
        <mxCell id="dqh9Xbjhalfim9IYdRQ5-21" value="" style="endArrow=classic;html=1;rounded=0;entryX=0;entryY=0.5;entryDx=0;entryDy=0;" edge="1" parent="1" target="dqh9Xbjhalfim9IYdRQ5-10">
          <mxGeometry width="50" height="50" relative="1" as="geometry">
            <mxPoint x="80" y="390" as="sourcePoint" />
            <mxPoint x="190" y="320" as="targetPoint" />
          </mxGeometry>
        </mxCell>
        <mxCell id="dqh9Xbjhalfim9IYdRQ5-22" value="" style="endArrow=classic;html=1;rounded=0;entryX=0;entryY=0.5;entryDx=0;entryDy=0;" edge="1" parent="1" target="dqh9Xbjhalfim9IYdRQ5-11">
          <mxGeometry width="50" height="50" relative="1" as="geometry">
            <mxPoint x="80" y="390" as="sourcePoint" />
            <mxPoint x="190" y="320" as="targetPoint" />
          </mxGeometry>
        </mxCell>
        <mxCell id="dqh9Xbjhalfim9IYdRQ5-23" value="" style="endArrow=classic;html=1;rounded=0;entryX=0;entryY=0.5;entryDx=0;entryDy=0;" edge="1" parent="1" target="dqh9Xbjhalfim9IYdRQ5-12">
          <mxGeometry width="50" height="50" relative="1" as="geometry">
            <mxPoint x="80" y="390" as="sourcePoint" />
            <mxPoint x="190" y="320" as="targetPoint" />
          </mxGeometry>
        </mxCell>
        <mxCell id="dqh9Xbjhalfim9IYdRQ5-24" value="" style="endArrow=classic;html=1;rounded=0;entryX=0;entryY=0.5;entryDx=0;entryDy=0;" edge="1" parent="1" target="dqh9Xbjhalfim9IYdRQ5-14">
          <mxGeometry width="50" height="50" relative="1" as="geometry">
            <mxPoint x="80" y="390" as="sourcePoint" />
            <mxPoint x="190" y="320" as="targetPoint" />
          </mxGeometry>
        </mxCell>
      </root>
    </mxGraphModel>
  </diagram>
</mxfile>
